<svg id="visual" viewBox="0 0 960 360" width="960" height="360" xmlns="http://www.w3.org/2000/svg" xmlns:xlink="http://www.w3.org/1999/xlink" version="1.1"><rect x="0" y="0" width="960" height="360" fill="#ffffff"></rect><path d="M0 214L20 225.7C40 237.3 80 260.7 120 257.2C160 253.7 200 223.3 240 216.5C280 209.7 320 226.3 360 231.5C400 236.7 440 230.3 480 223.5C520 216.7 560 209.3 600 219.5C640 229.7 680 257.3 720 260.8C760 264.3 800 243.7 840 231.2C880 218.7 920 214.3 940 212.2L960 210L960 0L940 0C920 0 880 0 840 0C800 0 760 0 720 0C680 0 640 0 600 0C560 0 520 0 480 0C440 0 400 0 360 0C320 0 280 0 240 0C200 0 160 0 120 0C80 0 40 0 20 0L0 0Z" fill="#59a9b1"></path><path d="M0 218L20 208.2C40 198.3 80 178.7 120 168.5C160 158.3 200 157.7 240 160.3C280 163 320 169 360 174.3C400 179.7 440 184.3 480 181.8C520 179.3 560 169.7 600 164.5C640 159.3 680 158.7 720 160C760 161.3 800 164.7 840 171.2C880 177.7 920 187.3 940 192.2L960 197L960 0L940 0C920 0 880 0 840 0C800 0 760 0 720 0C680 0 640 0 600 0C560 0 520 0 480 0C440 0 400 0 360 0C320 0 280 0 240 0C200 0 160 0 120 0C80 0 40 0 20 0L0 0Z" fill="#039bc9"></path><path d="M0 109L20 120C40 131 80 153 120 152.8C160 152.7 200 130.3 240 123.8C280 117.3 320 126.7 360 134C400 141.3 440 146.7 480 141.5C520 136.3 560 120.7 600 125.3C640 130 680 155 720 156.7C760 158.3 800 136.7 840 126.5C880 116.3 920 117.7 940 118.3L960 119L960 0L940 0C920 0 880 0 840 0C800 0 760 0 720 0C680 0 640 0 600 0C560 0 520 0 480 0C440 0 400 0 360 0C320 0 280 0 240 0C200 0 160 0 120 0C80 0 40 0 20 0L0 0Z" fill="#3a85d8"></path><path d="M0 95L20 96.2C40 97.3 80 99.7 120 98.7C160 97.7 200 93.3 240 88.2C280 83 320 77 360 83.8C400 90.7 440 110.3 480 116.7C520 123 560 116 600 112.8C640 109.7 680 110.3 720 107.5C760 104.7 800 98.3 840 99C880 99.7 920 107.3 940 111.2L960 115L960 0L940 0C920 0 880 0 840 0C800 0 760 0 720 0C680 0 640 0 600 0C560 0 520 0 480 0C440 0 400 0 360 0C320 0 280 0 240 0C200 0 160 0 120 0C80 0 40 0 20 0L0 0Z" fill="#8b60c8"></path><path d="M0 50L20 50.8C40 51.7 80 53.3 120 51.5C160 49.7 200 44.3 240 49.2C280 54 320 69 360 75C400 81 440 78 480 77.3C520 76.7 560 78.3 600 79.3C640 80.3 680 80.7 720 72.2C760 63.7 800 46.3 840 39.5C880 32.7 920 36.3 940 38.2L960 40L960 0L940 0C920 0 880 0 840 0C800 0 760 0 720 0C680 0 640 0 600 0C560 0 520 0 480 0C440 0 400 0 360 0C320 0 280 0 240 0C200 0 160 0 120 0C80 0 40 0 20 0L0 0Z" fill="#c21b8f"></path></svg>