<svg id="visual" viewBox="0 0 960 360" width="960" height="360" xmlns="http://www.w3.org/2000/svg" xmlns:xlink="http://www.w3.org/1999/xlink" version="1.1"><rect x="0" y="0" width="960" height="360" fill="#242424"></rect><path d="M0 159L16 152C32 145 64 131 96 129.5C128 128 160 139 192 142.7C224 146.3 256 142.7 288 140C320 137.3 352 135.7 384 131.7C416 127.7 448 121.3 480 115.3C512 109.3 544 103.7 576 109.2C608 114.7 640 131.3 672 130C704 128.7 736 109.3 768 102.2C800 95 832 100 864 103.3C896 106.7 928 108.3 944 109.2L960 110L960 361L944 361C928 361 896 361 864 361C832 361 800 361 768 361C736 361 704 361 672 361C640 361 608 361 576 361C544 361 512 361 480 361C448 361 416 361 384 361C352 361 320 361 288 361C256 361 224 361 192 361C160 361 128 361 96 361C64 361 32 361 16 361L0 361Z" fill="#59a9b1"></path><path d="M0 201L16 200.3C32 199.7 64 198.3 96 187.5C128 176.7 160 156.3 192 153.8C224 151.3 256 166.7 288 168.5C320 170.3 352 158.7 384 162.7C416 166.7 448 186.3 480 185C512 183.7 544 161.3 576 152C608 142.7 640 146.3 672 147C704 147.7 736 145.3 768 146.2C800 147 832 151 864 152.8C896 154.7 928 154.3 944 154.2L960 154L960 361L944 361C928 361 896 361 864 361C832 361 800 361 768 361C736 361 704 361 672 361C640 361 608 361 576 361C544 361 512 361 480 361C448 361 416 361 384 361C352 361 320 361 288 361C256 361 224 361 192 361C160 361 128 361 96 361C64 361 32 361 16 361L0 361Z" fill="#039bc9"></path><path d="M0 230L16 224.2C32 218.3 64 206.7 96 199.2C128 191.7 160 188.3 192 195.3C224 202.3 256 219.7 288 220.8C320 222 352 207 384 208C416 209 448 226 480 231.7C512 237.3 544 231.7 576 223.5C608 215.3 640 204.7 672 205.8C704 207 736 220 768 221.5C800 223 832 213 864 208.8C896 204.7 928 206.3 944 207.2L960 208L960 361L944 361C928 361 896 361 864 361C832 361 800 361 768 361C736 361 704 361 672 361C640 361 608 361 576 361C544 361 512 361 480 361C448 361 416 361 384 361C352 361 320 361 288 361C256 361 224 361 192 361C160 361 128 361 96 361C64 361 32 361 16 361L0 361Z" fill="#3a85d8"></path><path d="M0 232L16 240.2C32 248.3 64 264.7 96 265.5C128 266.3 160 251.7 192 244.2C224 236.7 256 236.3 288 239C320 241.7 352 247.3 384 253.8C416 260.3 448 267.7 480 263C512 258.3 544 241.7 576 241.7C608 241.7 640 258.3 672 266.8C704 275.3 736 275.7 768 275.3C800 275 832 274 864 266C896 258 928 243 944 235.5L960 228L960 361L944 361C928 361 896 361 864 361C832 361 800 361 768 361C736 361 704 361 672 361C640 361 608 361 576 361C544 361 512 361 480 361C448 361 416 361 384 361C352 361 320 361 288 361C256 361 224 361 192 361C160 361 128 361 96 361C64 361 32 361 16 361L0 361Z" fill="#8b60c8"></path><path d="M0 294L16 293.3C32 292.7 64 291.3 96 294.3C128 297.3 160 304.7 192 306.5C224 308.3 256 304.7 288 299C320 293.3 352 285.7 384 284.5C416 283.3 448 288.7 480 295.2C512 301.7 544 309.3 576 310.5C608 311.7 640 306.3 672 304.5C704 302.7 736 304.3 768 306.3C800 308.3 832 310.7 864 308.7C896 306.7 928 300.3 944 297.2L960 294L960 361L944 361C928 361 896 361 864 361C832 361 800 361 768 361C736 361 704 361 672 361C640 361 608 361 576 361C544 361 512 361 480 361C448 361 416 361 384 361C352 361 320 361 288 361C256 361 224 361 192 361C160 361 128 361 96 361C64 361 32 361 16 361L0 361Z" fill="#c21b8f"></path></svg>