<svg id="visual" viewBox="0 0 960 360" width="960" height="360" xmlns="http://www.w3.org/2000/svg" xmlns:xlink="http://www.w3.org/1999/xlink" version="1.1"><rect x="0" y="0" width="960" height="360" fill="#001220"></rect><path d="M0 266L22.8 269.8C45.7 273.7 91.3 281.3 137 280.3C182.7 279.3 228.3 269.7 274 261C319.7 252.3 365.3 244.7 411.2 236.8C457 229 503 221 548.8 220.3C594.7 219.7 640.3 226.3 686 226.8C731.7 227.3 777.3 221.7 823 219.8C868.7 218 914.3 220 937.2 221L960 222L960 0L937.2 0C914.3 0 868.7 0 823 0C777.3 0 731.7 0 686 0C640.3 0 594.7 0 548.8 0C503 0 457 0 411.2 0C365.3 0 319.7 0 274 0C228.3 0 182.7 0 137 0C91.3 0 45.7 0 22.8 0L0 0Z" fill="#c76e24"></path><path d="M0 215L22.8 212.2C45.7 209.3 91.3 203.7 137 195.5C182.7 187.3 228.3 176.7 274 179.7C319.7 182.7 365.3 199.3 411.2 199C457 198.7 503 181.3 548.8 175.5C594.7 169.7 640.3 175.3 686 181.8C731.7 188.3 777.3 195.7 823 198.2C868.7 200.7 914.3 198.3 937.2 197.2L960 196L960 0L937.2 0C914.3 0 868.7 0 823 0C777.3 0 731.7 0 686 0C640.3 0 594.7 0 548.8 0C503 0 457 0 411.2 0C365.3 0 319.7 0 274 0C228.3 0 182.7 0 137 0C91.3 0 45.7 0 22.8 0L0 0Z" fill="#d45538"></path><path d="M0 180L22.8 181C45.7 182 91.3 184 137 188.5C182.7 193 228.3 200 274 188.8C319.7 177.7 365.3 148.3 411.2 136.3C457 124.3 503 129.7 548.8 143.3C594.7 157 640.3 179 686 189.2C731.7 199.3 777.3 197.7 823 184.2C868.7 170.7 914.3 145.3 937.2 132.7L960 120L960 0L937.2 0C914.3 0 868.7 0 823 0C777.3 0 731.7 0 686 0C640.3 0 594.7 0 548.8 0C503 0 457 0 411.2 0C365.3 0 319.7 0 274 0C228.3 0 182.7 0 137 0C91.3 0 45.7 0 22.8 0L0 0Z" fill="#da3a51"></path><path d="M0 116L22.8 118C45.7 120 91.3 124 137 125C182.7 126 228.3 124 274 125.3C319.7 126.7 365.3 131.3 411.2 125.7C457 120 503 104 548.8 99C594.7 94 640.3 100 686 108.5C731.7 117 777.3 128 823 131.7C868.7 135.3 914.3 131.7 937.2 129.8L960 128L960 0L937.2 0C914.3 0 868.7 0 823 0C777.3 0 731.7 0 686 0C640.3 0 594.7 0 548.8 0C503 0 457 0 411.2 0C365.3 0 319.7 0 274 0C228.3 0 182.7 0 137 0C91.3 0 45.7 0 22.8 0L0 0Z" fill="#d5206f"></path><path d="M0 31L22.8 30.2C45.7 29.3 91.3 27.7 137 27.7C182.7 27.7 228.3 29.3 274 31.2C319.7 33 365.3 35 411.2 44.5C457 54 503 71 548.8 77.8C594.7 84.7 640.3 81.3 686 78.2C731.7 75 777.3 72 823 69C868.7 66 914.3 63 937.2 61.5L960 60L960 0L937.2 0C914.3 0 868.7 0 823 0C777.3 0 731.7 0 686 0C640.3 0 594.7 0 548.8 0C503 0 457 0 411.2 0C365.3 0 319.7 0 274 0C228.3 0 182.7 0 137 0C91.3 0 45.7 0 22.8 0L0 0Z" fill="#c21b8f"></path></svg>